<?xml version="1.0" encoding="UTF-8" standalone="no"?>
<!DOCTYPE svg PUBLIC "-//W3C//DTD SVG 1.1//EN" "http://www.w3.org/Graphics/SVG/1.1/DTD/svg11.dtd">
<svg width="100%" height="100%" viewBox="0 0 20 20" version="1.1" xmlns="http://www.w3.org/2000/svg" xmlns:xlink="http://www.w3.org/1999/xlink" xml:space="preserve" xmlns:serif="http://www.serif.com/" style="fill-rule:evenodd;clip-rule:evenodd;stroke-linejoin:round;stroke-miterlimit:2;">
    <path d="M3.417,16.667C2.931,16.667 2.518,16.497 2.177,16.156C1.837,15.816 1.667,15.403 1.667,14.917L1.667,5.083C1.667,4.597 1.837,4.184 2.177,3.844C2.518,3.503 2.931,3.333 3.417,3.333L7.521,3.333C7.757,3.333 7.983,3.378 8.198,3.469C8.413,3.559 8.604,3.687 8.771,3.854L10,5.083L16.583,5.083C17.069,5.083 17.482,5.253 17.823,5.594C18.163,5.934 18.333,6.347 18.333,6.833L18.333,14.917C18.333,15.403 18.163,15.816 17.823,16.156C17.482,16.497 17.069,16.667 16.583,16.667L3.417,16.667Z" style="fill:rgb(249,241,159);fill-rule:nonzero;"/>
    <path d="M3.417,16.667C2.931,16.667 2.518,16.497 2.177,16.156C1.837,15.816 1.667,15.403 1.667,14.917L1.667,5.083C1.667,4.597 1.837,4.184 2.177,3.844C2.518,3.503 2.931,3.333 3.417,3.333L7.521,3.333C7.757,3.333 7.983,3.378 8.198,3.469C8.413,3.559 8.604,3.687 8.771,3.854L10,5.083L16.583,5.083C17.069,5.083 17.482,5.253 17.823,5.594C18.163,5.934 18.333,6.347 18.333,6.833L18.333,14.917C18.333,15.403 18.163,15.816 17.823,16.156C17.482,16.497 17.069,16.667 16.583,16.667L3.417,16.667ZM3.417,16.121L16.583,16.121C16.918,16.121 17.202,16.005 17.437,15.77C17.671,15.536 17.787,15.251 17.787,14.917L17.787,6.833C17.787,6.499 17.671,6.214 17.437,5.98C17.202,5.745 16.918,5.629 16.583,5.629L10,5.629C9.855,5.629 9.716,5.571 9.614,5.469L8.385,4.24C8.269,4.124 8.136,4.035 7.987,3.972C7.839,3.91 7.683,3.879 7.521,3.879L3.417,3.879C3.082,3.879 2.798,3.995 2.563,4.23C2.329,4.464 2.213,4.749 2.213,5.083L2.213,14.917C2.213,15.251 2.329,15.536 2.563,15.77C2.798,16.005 3.082,16.121 3.417,16.121Z"/>
</svg>
